<svg width="38" height="46" viewBox="0 0 38 46" fill="none" xmlns="http://www.w3.org/2000/svg">
<path d="M37.9726 1.44972C37.9294 0.606138 37.2084 -0.0421548 36.3641 0.00106476C35.5198 0.045885 34.8694 0.76461 34.9142 1.60819C34.9351 2.00037 34.9415 2.40535 34.9367 2.81194C34.9367 2.84395 34.8598 6.37034 33.5172 9.69185C32.5816 12.0065 31.0356 13.3655 28.4754 15.6177C27.221 16.7222 25.7983 17.9724 24.1225 19.6179C23.7877 19.9477 23.4513 20.2678 23.094 20.6056C21.9181 21.7245 20.614 22.965 18.9991 24.8827C17.3841 22.9634 16.0816 21.7245 14.9041 20.6056C14.5484 20.2662 14.2104 19.9461 13.8756 19.6179C12.2014 17.974 10.7787 16.7222 9.52269 15.6177C6.96255 13.3655 5.41653 12.0065 4.48091 9.69185C3.13835 6.37034 3.06145 2.84395 3.06145 2.81194C3.05505 2.40535 3.06306 2.00037 3.08388 1.60819C3.13034 0.76461 2.4815 0.045885 1.6372 0.00106476C0.792894 -0.0421548 0.0719527 0.606138 0.0270941 1.44972C0.00466485 1.90913 -0.0049477 2.38294 0.00146066 2.85836C0.00466484 3.02483 0.0815653 6.97382 1.6436 10.8396C2.85158 13.8265 4.80133 15.5425 7.50085 17.9164C8.72645 18.9937 10.1155 20.2166 11.7304 21.8013C12.0828 22.1471 12.4273 22.4752 12.7926 22.8226C14.2328 24.1928 15.7244 25.611 17.767 28.2282C17.9833 28.5052 18.2749 28.6876 18.5905 28.7677C18.7235 28.8013 18.8613 28.8157 18.9975 28.8141C19.1352 28.8157 19.2714 28.8029 19.4044 28.7677C19.72 28.686 20.0116 28.5036 20.2279 28.2282C22.2721 25.611 23.7621 24.1944 25.2024 22.8226C25.5676 22.4752 25.9137 22.1471 26.2645 21.8013C27.8794 20.215 29.2685 18.9937 30.4941 17.9164C33.1936 15.5425 35.1433 13.8265 36.3513 10.8396C37.9133 6.97382 37.9902 3.02483 37.9934 2.85836C37.9999 2.38294 37.9918 1.91073 37.9678 1.45132L37.9726 1.44972Z" fill="#FFBB80"/>
<path d="M25.7246 40.218C26.138 42.5791 24.9861 45.4716 23.1837 45.9406C21.9197 46.2688 21.391 45.1306 19.1721 45.025C16.6232 44.9017 15.7885 46.3312 14.3882 45.859C12.658 45.2763 11.7816 42.4014 12.2991 40.2196C12.8326 37.969 15.1364 34.7275 19.0119 34.7275C22.8873 34.7275 25.268 37.6072 25.7262 40.2196L25.7246 40.218Z" fill="#FFBB80"/>
<path d="M27.9483 39.7029C29.2552 39.7029 30.3146 38.4172 30.3146 36.8312C30.3146 35.2452 29.2552 33.9595 27.9483 33.9595C26.6415 33.9595 25.582 35.2452 25.582 36.8312C25.582 38.4172 26.6415 39.7029 27.9483 39.7029Z" fill="#FFBB80"/>
<path d="M20.345 31.8656C20.7839 33.4951 22.2851 34.534 23.6981 34.185C25.1096 33.8361 25.8994 32.2338 25.4604 30.6042C25.0215 28.9747 23.5203 27.9358 22.1073 28.2848C20.6958 28.6337 19.906 30.2361 20.345 31.8656Z" fill="#FFBB80"/>
<path d="M9.92829 39.7029C11.1564 39.7029 12.152 38.4172 12.152 36.8312C12.152 35.2452 11.1564 33.9595 9.92829 33.9595C8.70018 33.9595 7.70459 35.2452 7.70459 36.8312C7.70459 38.4172 8.70018 39.7029 9.92829 39.7029Z" fill="#FFBB80"/>
<path d="M17.3246 31.9331C17.7067 30.2964 16.933 28.7172 15.5965 28.4057C14.2601 28.0942 12.8669 29.1685 12.4848 30.8051C12.1027 32.4418 12.8764 34.0211 14.2129 34.3325C15.5493 34.644 16.9425 33.5697 17.3246 31.9331Z" fill="#FFBB80"/>
</svg>
