<svg width="49" height="49" viewBox="0 0 49 49" fill="none" xmlns="http://www.w3.org/2000/svg">
<path d="M39.8258 20.1484C39.8307 19.6054 39.8373 18.8598 40.2378 18.4059C40.4732 18.1401 40.7299 18.0898 41.6455 18.0104C42.6166 17.9261 43.9474 17.811 45.3469 16.8984C47.4576 15.5222 48.7672 12.9741 48.9699 11.1683C49.1138 9.89262 48.687 9.1567 48.3012 8.75956L48.2587 8.71742C48.2456 8.70445 48.2325 8.6931 48.2195 8.68014C47.5851 8.09173 46.2952 7.38661 41.6618 6.58586C41.1403 5.18048 40.0367 3.12187 37.7773 1.62896C34.3963 -0.6031 30.8501 -0.00982875 29.4833 0.350024C26.0092 1.261 23.1121 3.97287 22.1017 7.26018C21.7567 8.38188 21.7894 9.14697 21.827 10.0336C21.8597 10.8263 21.9022 11.8135 21.7339 13.6241C21.5426 15.6859 21.2238 17.4204 21.0668 18.119C20.421 20.9751 18.7174 22.682 16.7441 24.6596C15.6405 25.7651 14.4994 26.9078 13.4579 28.3343C11.2737 31.3249 9.98536 35.0369 9.6126 39.4006C9.01586 38.9613 8.44037 38.4928 7.8894 37.9984C6.81854 37.0388 6.07628 36.1943 5.47791 35.5151C4.46099 34.3594 3.5013 33.2685 2.01352 33.7418C1.95467 33.7612 1.89745 33.7823 1.84022 33.8083C1.41188 33.9849 0.883799 34.3594 0.507769 35.1537C-0.28026 36.8184 -0.144562 39.869 0.821672 42.2518C2.45986 46.2864 6.22506 48.1505 8.32266 48.9026C8.50413 48.9675 8.69705 49.0015 8.88997 49.0015H8.89651L33.1129 48.8994C33.1259 48.8994 33.1374 48.8994 33.1488 48.8994C33.157 48.8994 33.1668 48.8978 33.1766 48.8978L44.8319 48.8491C45.548 48.8459 46.1824 48.3904 46.408 47.7161C46.7186 46.7889 47.299 44.3802 45.9796 42.0298C44.7616 39.8593 42.3289 38.5382 39.6754 38.4701C39.6983 31.7334 39.7571 26.3065 39.7964 22.6139C39.8062 21.6673 39.816 20.8422 39.8225 20.1484H39.8258ZM36.9582 41.5662C37.3522 41.8806 37.8688 42.0022 38.3626 41.8952C40.3179 41.4705 42.2537 42.1886 43.0678 43.6394C43.4308 44.2861 43.4995 44.9783 43.4619 45.5472L34.3848 45.5845C33.3221 42.4982 31.6921 40.5028 29.5275 39.647C29.1564 39.5011 28.7836 39.3925 28.4141 39.3147C28.5907 39.1104 28.7607 38.8932 28.9193 38.6614C30.2485 36.7406 30.6441 34.2524 30.0948 31.265C29.9297 30.367 29.0615 29.7704 28.1542 29.9342C27.2484 30.0979 26.6468 30.9602 26.8119 31.8582C27.1977 33.9541 26.9819 35.6124 26.1677 36.7876C25.3732 37.9368 24.0178 38.6241 23.1219 39.0796C22.7998 39.2433 22.5235 39.3844 22.2914 39.5335C21.0308 40.3521 21.3382 41.4884 21.4118 41.7072C21.4886 41.9325 21.9464 43.0493 23.4881 42.9051C23.7693 42.8791 24.0849 42.8176 24.4478 42.7446C25.4843 42.5387 27.0522 42.2275 28.2899 42.7171C29.2986 43.1158 30.1438 44.0835 30.8174 45.5975L9.18916 45.6883C5.72478 44.3639 4.40213 42.2032 3.91983 41.0134C3.50947 40.0019 3.35742 38.9483 3.33944 38.1103C3.9182 38.7587 4.66372 39.5627 5.65284 40.4493C7.08666 41.7331 8.66435 42.8662 10.3418 43.8161C10.86 44.1095 11.4977 44.1062 12.0127 43.8063C12.5277 43.5081 12.8416 42.9586 12.8383 42.3669C12.8007 37.4084 13.9173 33.3382 16.1604 30.2697C17.0515 29.0507 18.1011 27.9987 19.1164 26.9808C21.2548 24.8379 23.4669 22.622 24.3236 18.8354C24.3644 18.6555 24.4086 18.4448 24.4543 18.2081C26.7024 19.4725 28.9569 19.7254 30.4251 18.7803C32.1728 17.6538 32.2872 15.1672 32.3968 12.7666C32.4834 10.8425 32.3428 7.5098 30.5673 3.4882C31.6234 3.24992 33.8437 3.00191 35.9314 4.37973C37.9031 5.68298 38.562 7.64921 38.7533 8.43375C38.9119 9.08213 39.4465 9.57166 40.1103 9.67865C43.6253 10.2379 45.0706 10.7031 45.6363 10.9414C45.4908 11.6919 44.7976 13.2934 43.5158 14.1282C42.8193 14.5821 42.1408 14.6404 41.3561 14.7085C40.2493 14.8041 38.871 14.9241 37.7266 16.2225C36.5135 17.5987 36.4988 19.2958 36.4906 20.1111C36.484 20.8033 36.4742 21.6267 36.4644 22.5718C36.4203 26.595 36.3549 32.6768 36.3385 40.2678C36.3385 40.7687 36.5658 41.2436 36.9598 41.5581L36.9582 41.5662Z" fill="#FFD993"/>
</svg>
