<svg width="41" height="47" viewBox="0 0 41 47" fill="none" xmlns="http://www.w3.org/2000/svg">
<path d="M40.9371 32.0695C40.5875 30.4203 38.881 29.8755 37.3699 30.0174C34.9245 30.2469 32.9545 31.5494 30.7426 32.4574C29.0361 33.1574 27.2533 33.6394 25.4341 33.8904C25.4126 32.6093 24.8111 31.4256 23.4376 30.7389C22.0459 30.0439 20.4056 29.859 18.8664 29.9498C17.9104 30.0059 17.0489 30.0307 16.126 29.7368C15.0706 29.4017 14.2223 28.639 13.2945 28.0645C11.4024 26.894 9.47384 26.6546 7.35309 27.4239C7.29345 27.4454 7.2338 27.4718 7.17581 27.4982C5.37484 27.4784 3.57551 27.4586 1.77454 27.4388C1.32056 27.4338 0.966001 27.5973 0.712505 27.8515C0.381139 28.1124 0.154153 28.5135 0.147525 29.0599H0.149182C0.0994771 34.4995 0.0497721 39.9391 6.70548e-05 45.3804C-0.00821711 46.2537 0.752269 47.0048 1.62542 46.9998C3.67824 46.9916 5.7294 46.9833 7.78221 46.9751C8.66199 46.9718 9.40757 46.2355 9.40757 45.3556V44.3255C13.0211 44.2314 16.638 44.2198 20.2515 44.3519C22.8925 44.4476 25.2701 44.3931 27.7404 43.3382C29.3525 42.6498 30.8271 41.6956 32.2868 40.7365C34.1905 39.4835 36.0743 38.2041 37.8952 36.8338C38.6043 36.299 39.3615 35.7806 40.0242 35.1879C40.8046 34.488 41.1542 33.0963 40.9371 32.0695ZM38.0923 33.2399C38.0923 33.2399 38.0973 33.2399 38.1006 33.2399C38.1006 33.2399 38.1039 33.2432 38.1056 33.2432C38.1023 33.2432 38.1006 33.2432 38.099 33.2449C38.099 33.2432 38.0956 33.2416 38.094 33.2383L38.0923 33.2399ZM37.7394 32.6588C37.7394 32.6473 37.7444 32.6374 37.751 32.6324C37.7527 32.6324 37.7477 32.6423 37.7394 32.6588ZM3.38498 30.6959C4.30949 30.7059 5.23235 30.7158 6.15686 30.7257V43.7427C5.19258 43.746 4.22996 43.751 3.26569 43.7543C3.30545 39.4009 3.34521 35.0493 3.38498 30.6959ZM29.9705 38.3807C28.8406 39.1104 27.3842 40.0151 26.3205 40.4476C25.7953 40.6605 25.2502 40.8322 24.6968 40.9643C24.4798 41.0171 24.2611 41.0584 24.0407 41.1013C24.0142 41.1063 23.9877 41.1096 23.9629 41.1129C23.9877 41.1063 23.6613 41.1459 23.595 41.1508C22.4833 41.235 21.36 41.1541 20.2482 41.1129C16.6678 40.9825 13.0808 40.9924 9.49869 41.0848C9.47218 37.4694 9.44567 33.8524 9.42082 30.237C9.75219 30.1825 10.0504 30.1644 10.2376 30.2023C10.8689 30.3278 11.3643 30.6745 11.916 31.0261C12.7229 31.5412 13.4585 32.1223 14.3416 32.5069C15.2827 32.9147 16.2503 33.1607 17.2775 33.23C18.0778 33.2845 18.8747 33.1541 19.675 33.1656C19.8705 33.1689 20.0676 33.1788 20.2631 33.1954C20.3692 33.2036 20.4752 33.2152 20.5796 33.2267C20.626 33.2333 20.6972 33.2449 20.7502 33.2564C21.065 33.3225 21.3815 33.3852 21.6847 33.4942C21.7013 33.5008 21.7825 33.5354 21.8206 33.5519C21.8902 33.5916 22.0857 33.7038 22.0956 33.6939C22.147 33.7484 22.2199 33.8392 22.2563 33.8722C22.2563 33.9019 22.2563 33.9448 22.2563 33.9498C22.2563 34.0224 22.2464 34.0934 22.2315 34.1644C21.1148 34.204 20.0014 34.1694 18.8731 34.1644C17.2295 34.1595 15.6787 34.6696 14.2886 35.528C12.5125 36.6242 14.1445 39.429 15.9305 38.3262C17.0555 37.6296 18.038 37.3737 19.2558 37.4116C20.7685 37.4579 22.2596 37.4694 23.764 37.2928C25.7224 37.1855 27.6742 36.8702 29.5497 36.3039C31.3888 35.7509 33.0821 34.9288 34.7969 34.0852C35.5408 33.7187 36.4007 33.4232 37.2291 33.2861C36.5548 33.8144 35.8689 34.3278 35.1746 34.833C33.478 36.0678 31.7317 37.24 29.9705 38.3791V38.3807ZM38.1155 33.2416C38.1155 33.2416 38.1155 33.2399 38.1139 33.2399C38.1221 33.2399 38.1304 33.2399 38.1387 33.2399C38.1288 33.2399 38.1222 33.2416 38.1155 33.2432V33.2416Z" fill="#CEE59C"/>
<path d="M34.9857 15.8993C36.8002 15.8993 38.2712 14.1195 38.2712 11.924C38.2712 9.72852 36.8002 7.94873 34.9857 7.94873C33.1712 7.94873 31.7002 9.72852 31.7002 11.924C31.7002 14.1195 33.1712 15.8993 34.9857 15.8993Z" fill="#CEE59C"/>
<path d="M29.0856 8.25929C31.0456 7.77724 32.1424 5.55848 31.531 3.30341C30.9213 1.04833 28.8387 -0.389566 26.877 0.0941365C24.917 0.576188 23.8201 2.79494 24.4315 5.05002C25.0412 7.30509 27.1239 8.74299 29.0856 8.25929Z" fill="#CEE59C"/>
<path d="M9.97438 15.8993C11.6791 15.8993 13.0611 14.1195 13.0611 11.924C13.0611 9.72852 11.6791 7.94873 9.97438 7.94873C8.26965 7.94873 6.8877 9.72852 6.8877 11.924C6.8877 14.1195 8.26965 15.8993 9.97438 15.8993Z" fill="#CEE59C"/>
<path d="M15.9222 8.46705C17.7762 8.89793 19.7097 7.4105 20.2399 5.14552C20.7701 2.88054 19.6965 0.694801 17.8425 0.262276C15.9885 -0.168599 14.055 1.31883 13.5231 3.58381C12.9929 5.84879 14.0666 8.03453 15.9206 8.46705H15.9222Z" fill="#CEE59C"/>
<path d="M16.1639 24.4177C18.1074 25.0698 19.2672 23.0937 22.8029 23.2638C25.8829 23.4124 26.6152 24.9856 28.3698 24.5316C30.8716 23.8829 32.4721 19.8795 31.8972 16.6125C31.261 12.9971 27.9573 9.01025 22.5792 9.01025C17.2011 9.01025 14.0018 13.4973 13.2628 16.6125C12.5454 19.6335 13.7615 23.6121 16.1623 24.4177H16.1639ZM19.4958 15.1316C20.0923 14.4713 21.1129 14.4515 21.7342 15.0722L22.561 15.896L23.3579 15.1019C23.8781 14.5836 24.7049 14.463 25.3179 14.8692C26.1629 15.4271 26.2458 16.5728 25.5681 17.2464L23.6926 19.1152C23.0663 19.7392 22.0523 19.7392 21.426 19.1152L19.6118 17.3075C19.0203 16.7181 18.9341 15.7507 19.4925 15.1316H19.4958Z" fill="#CEE59C"/>
</svg>
