<svg width="55" height="52" viewBox="0 0 55 52" fill="none" xmlns="http://www.w3.org/2000/svg">
<path d="M53.3126 14.8406H53.3108C43.5017 15.1915 34.4538 20.8092 30.1663 29.6704C29.365 29.5325 28.5603 29.5237 27.7782 29.632C29.1643 26.4705 31.1614 23.5273 33.7101 21.0641C37.7915 17.1188 43.0304 14.7429 48.6096 13.884C49.9853 13.6728 51.8235 13.5733 53.4086 13.6187C55.5313 13.6798 55.5296 10.3821 53.4086 10.321C42.4613 10.0033 31.8684 15.6716 26.3415 25.1804C25.2312 27.0902 24.3304 29.1362 23.6496 31.2398C23.2621 30.6026 22.8012 30.016 22.2793 29.4941C22.295 29.4574 22.3124 29.4207 22.3264 29.3823C22.4608 29.0314 22.5987 28.6806 22.7419 28.3332C22.7419 28.3297 22.7436 28.3279 22.7453 28.3262C22.7558 28.3017 22.768 28.2756 22.7838 28.2371C22.8274 28.1394 22.8693 28.0416 22.9129 27.9439C23.0282 27.6838 23.1469 27.4254 23.2691 27.167C23.7561 26.1406 24.292 25.135 24.8751 24.1592C26.4078 21.5913 28.2705 19.2503 30.4317 17.1834C35.1224 12.7004 41.0752 9.79208 47.4383 8.61897C49.3551 8.26459 51.3329 8.08479 53.4086 8.0813C55.4842 8.0778 55.5348 4.78018 53.4086 4.78367C41.056 4.80811 29.3127 11.1101 22.6249 21.5284C21.3977 23.44 20.3712 25.4667 19.5158 27.5685C18.7774 27.2316 17.9936 26.9907 17.1835 26.8615C19.3657 21.4621 22.9199 16.3419 27.443 12.4106C32.9507 7.62218 39.855 4.72955 47.0438 3.67515C48.9186 3.40107 51.3085 3.25967 53.4103 3.30331C55.5121 3.34696 55.5331 0.0493289 53.4103 0.00568636V0.00917776C48.065 -0.102547 42.6341 0.806963 37.6292 2.67312C29.4855 5.70889 22.5167 11.2637 17.7858 18.5625C16.068 21.2125 14.682 24.0719 13.5996 27.0361C9.5112 28.1307 7.10388 32.3169 7.34653 36.3861C4.17634 36.5519 1.3291 38.4966 0.330561 41.7244C-1.14979 46.4972 2.55284 50.7392 7.23481 51.1844C8.48473 51.3031 9.78702 51.1599 11.0439 51.1477C12.4859 51.132 13.9278 51.118 15.3698 51.1023C18.3113 51.0709 21.2528 51.0412 24.1925 51.0098C27.0555 50.9801 29.9341 50.8579 32.7953 50.9295C35.0037 50.9836 37.1718 50.2068 38.7098 48.5833C40.4433 46.7555 41.145 44.1754 40.5428 41.7262C40.0225 39.6104 38.6015 37.9537 36.7598 36.9272C36.5119 34.499 35.2079 32.2732 33.2248 30.9151C35.2742 26.8807 38.3746 23.4766 42.3391 21.2194C45.7642 19.2677 49.6047 18.2727 53.3126 18.14C55.4284 18.065 55.4388 14.7673 53.3126 14.8424V14.8406ZM34.7156 39.5598C37.4564 40.6089 38.3921 44.2138 36.2972 46.3366C35.173 47.4765 33.8445 47.6389 32.3223 47.6284C29.901 47.6127 27.4762 47.679 25.0567 47.7052C20.4428 47.7541 15.8289 47.803 11.2167 47.8501C9.42217 47.8693 7.39366 48.2359 5.71081 47.4451C4.47136 46.862 3.45711 45.7308 3.30698 44.3308C2.97704 41.2513 5.93077 39.0814 8.9229 39.7919C9.44312 39.9159 9.88827 39.8042 10.2304 39.5633C10.8292 39.2473 11.2237 38.6066 10.9497 37.7617C10.9462 37.753 10.9444 37.746 10.9427 37.7372C10.9252 37.65 10.899 37.5662 10.8676 37.4841C10.0122 34.368 11.6008 30.6776 15.0328 30.0858C18.0966 29.5569 20.9246 31.9066 21.5932 34.8795C21.9144 36.311 23.8958 36.4297 24.6063 35.2741C25.748 33.4201 27.9545 32.4251 30.0878 33.0308C32.2856 33.6558 33.5582 35.7576 33.5058 37.9694C33.4866 38.7498 34.0418 39.3014 34.7156 39.5598Z" fill="#C7927B"/>
<path d="M12.3012 13.6386C13.3312 14.6686 15.0036 14.6686 16.0335 13.6386L19.1234 10.5505C20.2389 9.43672 20.101 7.54264 18.7097 6.62091C17.6989 5.95056 16.339 6.14957 15.4802 7.00671L14.1674 8.31947L12.8057 6.95783C11.7828 5.9331 10.1017 5.96627 9.11883 7.05733C8.1971 8.08031 8.34025 9.67937 9.31435 10.6535L12.303 13.6421L12.3012 13.6386Z" fill="#C7927B"/>
<path d="M49.4109 29.1541C48.4001 28.4838 47.0402 28.6828 46.1813 29.5399L44.8686 30.8527L43.5069 29.491C42.4839 28.4663 40.8028 28.4995 39.82 29.5905C38.8983 30.6135 39.0414 32.2126 40.0155 33.1867L43.0042 36.1753C44.0341 37.2053 45.7065 37.2053 46.7365 36.1753L49.8264 33.0872C50.9419 31.9734 50.8039 30.0793 49.4126 29.1576L49.4109 29.1541Z" fill="#C7927B"/>
</svg>
