<svg width="34" height="30" viewBox="0 0 34 30" fill="none" xmlns="http://www.w3.org/2000/svg">
<path d="M15.7346 3.69687C15.843 3.51332 16.0094 3.33574 16.2306 3.20143C16.5811 2.98803 16.982 2.9358 17.3533 3.02833C17.7245 3.12085 18.0571 3.35066 18.265 3.69687L30.8368 24.7874C30.9407 24.9665 31.0135 25.1874 31.0268 25.4351C31.0046 25.9842 30.8501 26.317 30.6066 26.5677C30.3393 26.8423 29.9725 27.0124 29.5775 27.0169L4.42663 27.0154C4.20091 27.0139 3.94995 26.9542 3.71236 26.8154C3.35745 26.6095 3.11986 26.2797 3.02036 25.9096C2.92087 25.5395 2.96394 25.1351 3.15698 24.7979L15.7346 3.69687ZM13.1864 2.1628L0.608779 23.2638C-0.0178767 24.3547 -0.142614 25.5768 0.151409 26.6811C0.445433 27.7854 1.16119 28.7823 2.22739 29.4001C2.91642 29.8 3.67672 29.997 4.41772 30H29.5775C30.8234 29.9866 31.9341 29.4717 32.7301 28.654C33.526 27.8362 34.0131 26.7095 33.9997 25.4739C33.9908 24.674 33.7725 23.9159 33.3968 23.2742L20.8132 2.1628C20.1717 1.09879 19.1649 0.4004 18.0601 0.128803C16.9553 -0.142794 15.7421 0.00792712 14.6907 0.649612C14.0537 1.03761 13.5399 1.56737 13.1879 2.1628H13.1864ZM15.5149 10.6002V16.5694C15.5149 17.3931 16.1801 18.0617 16.9998 18.0617C17.8195 18.0617 18.4848 17.3931 18.4848 16.5694V10.6002C18.4848 9.77647 17.8195 9.10792 16.9998 9.10792C16.1801 9.10792 15.5149 9.77647 15.5149 10.6002ZM16.9998 24.0308C17.8195 24.0308 18.4848 23.3623 18.4848 22.5385C18.4848 21.7148 17.8195 21.0463 16.9998 21.0463C16.1801 21.0463 15.5149 21.7148 15.5149 22.5385C15.5149 23.3623 16.1801 24.0308 16.9998 24.0308Z" fill="#FF5454"/>
</svg>
