<svg width="27" height="27" viewBox="0 0 27 27" fill="none" xmlns="http://www.w3.org/2000/svg">
<path d="M13.5 0C6.04406 0 0 6.04406 0 13.5C0 20.9559 6.04406 27 13.5 27C20.9559 27 27 20.9559 27 13.5C27 6.04406 20.9559 0 13.5 0ZM21.0351 11.4516L12.4507 18.8658C12.1937 19.0879 11.8771 19.1968 11.5613 19.1968C11.2005 19.1968 10.8405 19.0539 10.5741 18.773L6.52405 14.5102C6.00577 13.9647 6.02789 13.1034 6.57341 12.5851C7.11892 12.0669 7.98017 12.089 8.49846 12.6345L11.6541 15.9561L19.2556 9.39034C19.8249 8.89844 20.6845 8.96142 21.1764 9.53076C21.6683 10.1001 21.6044 10.9597 21.0351 11.4516Z" fill="#3B48FF"/>
</svg>
