<svg width="272" height="101" viewBox="0 0 272 101" fill="none" xmlns="http://www.w3.org/2000/svg">
<path d="M23.9799 39.6919C28.4765 34.6357 20.1592 32.4801 18.2349 29.3841C16.0578 25.8802 17.0686 21.6999 20.3989 19.4069C26.3491 15.3125 39.4244 20.2163 46.3098 21.4552C57.3851 23.4454 73.1126 25.1845 84.0756 22.7648C87.0691 22.1057 89.7277 20.2958 88.5895 16.7811C86.9848 11.8279 79.7388 14.8488 75.9117 15.085C59.1216 16.1177 47.7007 11.7356 32.079 9.53706C18.7748 7.66486 3.85075 16.1048 9.17459 31.0029C10.7404 35.385 19.5545 44.6644 23.9777 39.6919H23.9799Z" fill="#97A97B"/>
<path d="M163.931 51.5542C163.469 45.9569 161.536 39.0821 156.72 35.2605C154.189 33.253 150.055 31.982 147.841 35.0651C145.487 38.3414 149.161 40.0741 150.863 42.2898C155.137 47.857 155.508 54.6824 153.262 60.6811L148.478 80.8653C147.712 84.3649 143.502 95.188 143.738 97.3436C144.15 101.12 151.014 102.857 153.247 98.1595C158.374 87.3707 158.657 64.8549 169.726 57.8814C178.747 52.1983 184.575 61.3725 176.398 66.5146C173.262 68.4855 167.62 67.5688 167.309 71.7812C166.946 76.6764 173.262 76.7322 177.013 75.7596C183.821 73.9905 189.33 68.1506 189.881 61.7589C191.08 47.8506 174.637 44.1684 163.934 51.5563L163.931 51.5542Z" fill="#222222"/>
<path d="M128.552 74.1344C128.31 73.1038 128.734 73.4345 129.12 73.1725C134.215 69.6879 138.932 67.0063 142.18 61.4112C148.962 49.7249 138.891 40.5958 127.12 44.7031C121.287 46.7384 117.222 51.7775 115.665 57.641C114.276 62.8797 114.868 66.725 115.682 71.9616C109.896 76.2556 102.32 77.7671 103.261 67.8951L110.848 39.3849C111.941 38.0774 125.092 39.7885 128.001 38.627C131.334 37.2959 130.807 31.4216 127.459 30.7045C124.697 30.1119 117.267 30.7045 113.913 30.7045C112.343 30.7045 114.9 24.5426 114.976 23.4755C115.33 18.4257 108.542 17.2878 106.611 21.2727C105.887 22.7648 104.857 29.6804 104.011 30.1957C100.335 30.4812 96.6026 30.0797 92.9224 30.2515C91.566 30.3138 86.1299 30.7238 85.4819 31.1081C82.3243 32.9868 83.9269 38.9555 86.3847 38.9555H101.46C99.9935 46.0192 98.2462 53.7549 95.905 60.5803C94.2161 65.5077 90.5207 74.9996 84.5208 75.7983C77.9054 76.6786 84.6979 64.7798 84.2336 61.9501C83.7973 59.2985 80.3719 57.9845 78.0501 58.9056C72.6053 61.0655 74.5923 76.6786 64.1261 74.9782C59.07 74.1559 61.286 66.0938 62.4933 62.9828C65.8517 54.3303 72.3613 51.1076 81.5274 52.0373C83.5576 52.2434 86.0262 53.377 87.8534 53.4822C92.8986 53.7764 95.1988 46.8651 88.7993 44.8083C80.1624 42.0322 69.4802 42.6376 62.2924 48.4754C61.4933 48.6192 59.7352 45.9032 58.8584 45.9032H47.0617C46.4353 45.9032 46.3921 44.5399 46.4289 44.0074C46.6556 40.7418 50.1415 32.8 49.716 30.2386C49.1048 26.5586 43.0272 25.191 41.2562 29.2724C40.2757 31.5311 37.563 44.8941 36.7185 45.3923C33.265 46.6032 28.412 44.6494 25.5395 46.6161C22.9391 48.3981 24.14 54.1542 26.5244 54.1542H34.1721C33.1333 61.8706 27.5459 81.0821 18.8831 83.0445C11.4081 84.7364 6.4039 78.6689 9.78395 71.8263C11.853 67.6375 17.0732 68.3911 16.2352 63.0858C15.2655 56.9411 7.63497 61.205 5.11883 63.7149C-4.42306 73.2305 -0.109983 90.2628 13.9026 91.8988C28.1118 93.5584 35.6105 80.2019 39.5349 68.8248C40.3901 66.3429 42.7961 55.8676 43.7572 54.779C44.2583 54.2122 44.6147 54.2272 45.295 54.1349C47.1481 53.888 56.4113 53.493 56.3746 56.0243C56.3595 57.1214 53.3596 62.7316 52.8196 65.0911C50.3229 76.0044 55.2645 85.3225 67.5623 83.6564C69.8732 83.3429 72.9488 80.6291 74.169 80.6635C74.7349 80.6785 77.0156 82.6988 78.1797 83.169C82.8276 85.052 87.7929 83.8368 91.9937 81.445C93.1211 80.803 94.7862 78.7805 95.9806 78.8922C98.4471 80.3114 99.4103 82.6774 102.421 83.3966C108.946 84.9575 115.187 82.6258 120.412 78.9587C125.74 84.1395 133.669 85.1443 140.703 83.388C143.662 82.6495 146.342 81.0027 149.092 79.7875C149.185 79.8862 149.154 80.2749 149.035 80.861L153.383 60.6769C149.966 70.7185 139.88 78.4542 128.556 74.1301L128.552 74.1344ZM123.742 60.0242C123.742 59.5282 125.98 55.6185 126.567 55.013C130.794 50.6653 138.764 51.4168 133.142 58.5084C130.969 61.2501 126.874 64.8829 123.742 66.3214V60.022V60.0242Z" fill="#3B48FF"/>
<path d="M230.349 53.9223C229.837 55.5433 229.325 57.1664 228.813 58.7874C228.258 61.6666 227.122 66.2075 224.835 69.9884C224.22 71.0061 223.673 71.7146 223.079 72.3458C220.95 74.6024 218.52 75.502 217.207 75.97C213.904 77.1509 210.939 77.0714 209.157 76.8675C208.663 75.9292 209.157 76.1461 209.462 75.794C213.507 71.1435 217.392 67.3648 219.114 61.1363C222.71 48.1275 210.647 41.8196 200.3 48.7458C195.173 52.1789 192.516 58.0746 192.501 64.1378C192.497 65.8425 192.689 67.3798 192.795 68.0797C193.134 70.3234 193.773 74.2674 196.548 78.1256C198.684 81.0949 201.285 82.8984 203.216 83.9505C205.566 84.7041 214.565 87.5102 223.258 82.7782C225.783 81.4041 227.865 79.3108 230.07 77.5094L233.872 59.6527C232.697 57.7418 231.522 55.831 230.347 53.9201L230.349 53.9223ZM200.924 64.4233C200.799 63.9424 201.97 59.599 202.386 58.8669C205.371 53.6002 213.276 52.3271 209.637 60.5995C208.229 63.7986 205.19 68.3395 202.525 70.5187L200.926 64.4233H200.924Z" fill="#222222"/>
<path d="M269.458 30.2687H245.644C245.67 26.8485 248.953 22.6146 244.802 20.4654C236.871 16.356 238.195 29.3669 235.744 30.2C229.528 30.8656 222.215 29.5516 216.142 30.2601C212.74 30.6573 211.328 34.29 213.302 37.0125C213.559 37.3667 215.016 38.5218 215.278 38.5218H233.848C232.895 44.4154 231.316 50.8199 229.556 56.6169L228.619 78.0334C234.571 88.1888 246.299 84.8094 253.739 78.0591C255.873 76.1247 260.94 69.8296 262.188 67.3455C264.702 62.3473 258.752 58.6158 255.391 61.6753C253.817 63.1073 251.517 67.8436 249.566 69.9992C243.292 76.9405 234.571 79.6716 236.085 66.5898L243.234 38.9469L244.528 38.4961L269.264 38.3264C273.641 36.9867 272.052 30.2665 269.458 30.2665V30.2687Z" fill="#222222"/>
<path d="M23.9801 39.6919C19.5569 44.6644 10.7429 35.385 9.17703 31.0029C3.85319 16.1048 18.7772 7.66486 32.0815 9.53706C47.7031 11.7356 59.124 16.1177 75.9141 15.085C79.7412 14.8488 86.9873 11.8279 88.592 16.7811C89.7302 20.2958 87.0715 22.1057 84.0781 22.7648C73.1129 25.1824 57.3875 23.4454 46.3122 21.4552C39.4269 20.2163 26.3516 15.3125 20.4014 19.4069C17.0689 21.6999 16.0581 25.8802 18.2373 29.3841C20.1617 32.4801 28.4811 34.6378 23.9823 39.6919H23.9801Z" fill="#3B48FF"/>
<path d="M181.752 22.1315C185.11 21.6999 187.704 23.0418 189.721 25.7105C191.095 27.5269 196.619 39.4729 196.671 41.3881C196.736 43.767 194.717 46.82 192.358 47.4405C186.944 48.8618 183.106 42.6355 177.51 41.7616C172.59 40.993 162.227 43.6081 163.607 34.9406C164.273 30.7582 168.24 30.3331 171.076 28.4587C174.238 26.3675 177.892 22.6317 181.754 22.1336L181.752 22.1315Z" fill="#3B48FF"/>
<path d="M196.596 5.17859C210.682 2.55709 202.196 26.9365 192.192 21.0837C186.237 17.5991 190.808 6.2564 196.596 5.17859Z" fill="#3B48FF"/>
<path d="M182.151 -2.22416e-05C184.916 -0.0558447 187.585 3.19045 187.935 5.76472C188.464 9.65941 186.322 16.6007 181.985 17.5798C170.877 20.0875 172.674 0.188915 182.151 -2.22416e-05Z" fill="#3B48FF"/>
<path d="M204.464 20.8174C215.414 19.0311 211.615 35.2454 203.825 36.6817C192.542 38.7643 195.354 22.3032 204.464 20.8174Z" fill="#3B48FF"/>
<path d="M166.009 9.51562C175.987 8.65467 175.722 28.8946 164.348 26.1722C158.001 24.6521 158.828 10.1361 166.009 9.51562Z" fill="#3B48FF"/>
</svg>
