<svg width="162" height="61" viewBox="0 0 162 61" fill="none" xmlns="http://www.w3.org/2000/svg">
<path d="M14.2791 23.6417C16.9574 20.6302 12.0035 19.3462 10.8573 17.5022C9.56061 15.4152 10.1626 12.9254 12.1463 11.5596C15.6903 9.12093 23.4782 12.0417 27.5793 12.7796C34.1759 13.965 43.5435 15.0009 50.0733 13.5597C51.8562 13.1671 53.4398 12.089 52.7619 9.99563C51.8061 7.04543 47.4902 8.84471 45.2107 8.98537C35.2102 9.60048 28.4077 6.99044 19.1031 5.68095C11.1789 4.56583 2.28987 9.5928 5.46085 18.4664C6.39349 21.0765 11.6433 26.6034 14.2779 23.6417H14.2791Z" fill="#97A97B"/>
<path d="M97.6375 30.7071C97.3622 27.3732 96.2109 23.2785 93.3422 21.0022C91.8346 19.8065 89.3724 19.0495 88.0538 20.8858C86.6517 22.8373 88.8398 23.8693 89.8535 25.189C92.3993 28.505 92.6206 32.5703 91.2827 36.1433L88.4333 48.1653C87.9766 50.2497 85.4694 56.6962 85.6097 57.9801C85.8554 60.2295 89.9435 61.2641 91.2737 58.466C94.3276 52.0401 94.4961 38.6292 101.089 34.4757C106.462 31.0907 109.933 36.555 105.063 39.6178C103.195 40.7917 99.8347 40.2457 99.6495 42.7547C99.4333 45.6703 103.195 45.7036 105.429 45.1243C109.484 44.0706 112.766 40.5922 113.094 36.7852C113.808 28.5011 104.014 26.308 97.6388 30.7083L97.6375 30.7071Z" fill="#674C41"/>
<path d="M76.5646 44.1562C76.4205 43.5424 76.6726 43.7393 76.9029 43.5833C79.9375 41.5078 82.747 39.9106 84.6818 36.5781C88.7211 29.6175 82.7226 24.1801 75.7117 26.6264C72.2371 27.8387 69.8161 30.8401 68.8886 34.3325C68.0614 37.4528 68.4139 39.7431 68.8989 42.8621C65.4526 45.4197 60.9399 46.32 61.5008 40.44L66.0199 23.4588C66.6708 22.68 74.5037 23.6992 76.2365 23.0074C78.2214 22.2145 77.9076 18.7157 75.9136 18.2886C74.2683 17.9357 69.8431 18.2886 67.8453 18.2886C66.9101 18.2886 68.4332 14.6184 68.4782 13.9829C68.6892 10.9751 64.646 10.2974 63.496 12.6708C63.0651 13.5596 62.4514 17.6786 61.9472 17.9855C59.7577 18.1556 57.5348 17.9165 55.3428 18.0188C54.5349 18.0559 51.297 18.3001 50.9111 18.529C49.0304 19.648 49.9849 23.203 51.4488 23.203H60.4279C59.5545 27.4103 58.5138 32.0178 57.1193 36.0832C56.1133 39.018 53.9123 44.6716 50.3387 45.1473C46.3984 45.6716 50.4442 38.5845 50.1676 36.899C49.9077 35.3197 47.8675 34.5371 46.4846 35.0857C43.2416 36.3722 44.4251 45.6716 38.1912 44.6588C35.1797 44.169 36.4996 39.3671 37.2187 37.5141C39.219 32.3606 43.0962 30.4411 48.5557 30.9948C49.7649 31.1176 51.2353 31.7928 52.3236 31.8554C55.3286 32.0306 56.6987 27.9142 52.887 26.6891C47.7427 25.0356 41.3802 25.3962 37.099 28.8733C36.6231 28.9589 35.5759 27.3413 35.0536 27.3413H28.0273C27.6543 27.3413 27.6285 26.5292 27.6504 26.2121C27.7855 24.267 29.8617 19.5367 29.6083 18.0111C29.2443 15.8192 25.6243 15.0046 24.5695 17.4356C23.9854 18.7809 22.3697 26.7402 21.8667 27.0369C19.8098 27.7581 16.9192 26.5944 15.2083 27.7658C13.6595 28.8272 14.3747 32.2557 15.7949 32.2557H20.3501C19.7313 36.8517 16.4034 48.2945 11.2436 49.4633C6.79139 50.471 3.81079 46.8571 5.82401 42.7815C7.05638 40.2866 10.1656 40.7354 9.66649 37.5755C9.0889 33.9156 4.54404 36.4553 3.04538 37.9502C-2.63794 43.6179 -0.0689977 53.7626 8.27718 54.7371C16.7404 55.7256 21.2068 47.7701 23.5442 40.9938C24.0536 39.5155 25.4867 33.2762 26.0591 32.6278C26.3576 32.2902 26.5698 32.2992 26.975 32.2442C28.0788 32.0971 33.5961 31.8618 33.5743 33.3695C33.5653 34.023 31.7785 37.3645 31.4569 38.7699C29.9698 45.2701 32.9131 50.8201 40.2378 49.8277C41.6143 49.641 43.4461 48.0246 44.173 48.0451C44.51 48.054 45.8684 49.2574 46.5618 49.5374C49.3301 50.659 52.2876 49.9352 54.7896 48.5106C55.4611 48.1282 56.4529 46.9236 57.1643 46.9901C58.6334 47.8354 59.2071 49.2446 61.0004 49.673C64.8866 50.6027 68.6043 49.2139 71.7161 47.0297C74.8897 50.1155 79.612 50.7139 83.8019 49.6679C85.5642 49.228 87.1607 48.2471 88.7982 47.5233C88.8536 47.5822 88.8356 47.8136 88.7648 48.1627L91.3543 36.1407C89.3192 42.1217 83.3117 46.7292 76.5671 44.1537L76.5646 44.1562ZM73.6997 35.7519C73.6997 35.4565 75.0325 33.1278 75.3824 32.7672C77.8998 30.1776 82.6467 30.6252 79.2982 34.8491C78.0041 36.4821 75.565 38.6459 73.6997 39.5027V35.7507V35.7519Z" fill="#9BB069"/>
<path d="M137.197 32.1176C136.892 33.083 136.587 34.0498 136.282 35.0153C135.952 36.7302 135.275 39.4349 133.913 41.6868C133.546 42.293 133.22 42.715 132.867 43.091C131.598 44.435 130.151 44.9708 129.369 45.2496C127.402 45.9529 125.636 45.9056 124.575 45.7841C124.28 45.2253 124.575 45.3544 124.756 45.1447C127.165 42.3748 129.48 40.1241 130.505 36.4143C132.647 28.6661 125.462 24.9089 119.299 29.0344C116.245 31.0792 114.663 34.5908 114.654 38.2021C114.651 39.2175 114.766 40.1331 114.829 40.55C115.031 41.8863 115.412 44.2355 117.065 46.5335C118.337 48.3021 119.886 49.3763 121.036 50.0029C122.435 50.4518 127.796 52.1231 132.974 49.3047C134.477 48.4862 135.717 47.2394 137.031 46.1665L139.295 35.5307C138.595 34.3925 137.895 33.2544 137.195 32.1163L137.197 32.1176ZM119.671 38.3722C119.596 38.0857 120.293 35.4987 120.542 35.0626C122.32 31.9257 127.028 31.1674 124.86 36.0946C124.021 38 122.211 40.7047 120.624 42.0027L119.672 38.3722H119.671Z" fill="#674C41"/>
<path d="M160.491 18.029H146.307C146.322 15.9918 148.278 13.47 145.805 12.19C141.082 9.74234 141.87 17.4919 140.41 17.9881C136.708 18.3845 132.352 17.6019 128.735 18.0239C126.709 18.2604 125.867 20.4242 127.043 22.0457C127.196 22.2567 128.065 22.9447 128.22 22.9447H139.281C138.713 26.455 137.773 30.2697 136.725 33.7225L136.166 46.4785C139.712 52.5273 146.697 50.5144 151.128 46.4939C152.399 45.3417 155.417 41.5922 156.161 40.1126C157.658 37.1356 154.114 34.913 152.113 36.7353C151.175 37.5883 149.805 40.4093 148.643 41.6932C144.906 45.8276 139.712 47.4542 140.613 39.6625L144.871 23.1979L145.642 22.9294L160.375 22.8283C162.983 22.0304 162.036 18.0277 160.491 18.0277V18.029Z" fill="#674C41"/>
<path d="M14.2793 23.6417C11.6448 26.6034 6.39496 21.0765 5.46231 18.4664C2.29133 9.5928 11.1804 4.56583 19.1046 5.68095C28.4092 6.99044 35.2117 9.60048 45.2121 8.98537C47.4916 8.84471 51.8075 7.04543 52.7633 9.99563C53.4413 12.089 51.8577 13.1671 50.0747 13.5597C43.5437 14.9996 34.1774 13.965 27.5807 12.7796C23.4797 12.0417 15.6918 9.12093 12.1477 11.5596C10.1628 12.9254 9.56079 15.4152 10.8588 17.5022C12.005 19.3462 16.9602 20.6314 14.2806 23.6417H14.2793Z" fill="#9BB069"/>
<path d="M108.251 13.1823C110.252 12.9252 111.797 13.7245 112.998 15.3141C113.816 16.3959 117.107 23.5112 117.138 24.6519C117.176 26.0688 115.974 27.8872 114.569 28.2568C111.344 29.1034 109.058 25.3949 105.725 24.8744C102.794 24.4166 96.6223 25.9742 97.4443 20.8116C97.8405 18.3205 100.204 18.0673 101.893 16.9509C103.776 15.7054 105.953 13.4802 108.253 13.1836L108.251 13.1823Z" fill="#9BB069"/>
<path d="M117.092 3.08485C125.482 1.52343 120.428 16.0442 114.469 12.5582C110.922 10.4827 113.644 3.72681 117.092 3.08485Z" fill="#9BB069"/>
<path d="M108.489 0.000422997C110.136 -0.0328259 111.726 1.90072 111.934 3.43401C112.249 5.75376 110.973 9.88813 108.39 10.4713C101.774 11.9649 102.845 0.112958 108.489 0.000422997Z" fill="#9BB069"/>
<path d="M121.779 12.3996C128.302 11.3357 126.039 20.9932 121.399 21.8487C114.679 23.0891 116.353 13.2846 121.779 12.3996Z" fill="#9BB069"/>
<path d="M98.8744 5.66814C104.818 5.15534 104.659 17.2106 97.8852 15.5891C94.1044 14.6837 94.5971 6.03772 98.8744 5.66814Z" fill="#9BB069"/>
</svg>
