<svg width="11" height="11" viewBox="0 0 11 11" fill="none" xmlns="http://www.w3.org/2000/svg">
<path d="M11 7.14991V1.64998C11 1.19459 10.8147 0.78099 10.5166 0.483444C10.2185 0.185898 9.8054 0 9.35 0H1.65C1.1946 0 0.781 0.185348 0.48345 0.483444C0.1859 0.78154 0 1.19459 0 1.64998V10.4499C0 10.5907 0.0539 10.7315 0.16115 10.8387C0.3762 11.0538 0.72435 11.0538 0.93885 10.8387L2.9777 8.79989H9.35C9.8054 8.79989 10.219 8.61454 10.5166 8.31645C10.8141 8.01835 11 7.60531 11 7.14991ZM9.9 7.14991C9.9 7.30171 9.83895 7.43866 9.73885 7.53876C9.63875 7.63885 9.5018 7.6999 9.35 7.6999H2.75C2.5982 7.6999 2.4607 7.7615 2.36115 7.86105L1.1 9.12219V1.64998C1.1 1.49818 1.16105 1.36123 1.26115 1.26113C1.36125 1.16104 1.4982 1.09999 1.65 1.09999H9.35C9.5018 1.09999 9.63875 1.16104 9.73885 1.26113C9.83895 1.36123 9.9 1.49818 9.9 1.64998V7.14991Z" fill="#222222"/>
</svg>
