<svg width="11" height="13" viewBox="0 0 11 13" fill="none" xmlns="http://www.w3.org/2000/svg">
<path d="M11 5.41683C11 3.92124 10.384 2.56595 9.38905 1.58659C8.3941 0.607226 7.01855 0 5.5 0C3.98145 0 2.60535 0.606685 1.61095 1.58659C0.61655 2.56649 0 3.92124 0 5.41683C0 5.72505 0.0291501 6.02785 0.0825001 6.32469C0.2332 7.16321 0.57695 7.9519 1.0076 8.66476C2.5102 11.1516 5.19475 12.9094 5.19475 12.9094C5.3768 13.0269 5.6155 13.0334 5.8047 12.9094C5.8047 12.9094 8.4898 11.1516 9.99185 8.66476C10.4225 7.9519 10.7663 7.16321 10.917 6.32469C10.9709 6.02785 11 5.72505 11 5.41683ZM9.9 5.41683C9.9 5.65734 9.87745 5.8973 9.83455 6.13618C9.713 6.81329 9.4292 7.47847 9.04695 8.11116C7.99535 9.85213 6.27715 11.2242 5.544 11.7621C4.7751 11.2659 3.0206 9.87867 1.9525 8.11116C1.57025 7.47847 1.28645 6.81329 1.1649 6.13618C1.12255 5.8973 1.1 5.65734 1.1 5.41683C1.1 4.22025 1.5917 3.13743 2.38865 2.35253C3.1856 1.56763 4.28505 1.08337 5.5 1.08337C6.71495 1.08337 7.8144 1.56763 8.61135 2.35253C9.4083 3.13743 9.9 4.22025 9.9 5.41683ZM7.7 5.41683C7.7 4.81881 7.45305 4.27604 7.0554 3.88495C6.65775 3.49385 6.1072 3.2501 5.5 3.2501C4.8928 3.2501 4.3417 3.49331 3.9446 3.88495C3.5475 4.27659 3.3 4.81881 3.3 5.41683C3.3 6.01485 3.54695 6.55761 3.9446 6.94871C4.34225 7.3398 4.8928 7.58356 5.5 7.58356C6.1072 7.58356 6.6583 7.34034 7.0554 6.94871C7.4525 6.55707 7.7 6.01485 7.7 5.41683ZM6.6 5.41683C6.6 5.71638 6.47735 5.98614 6.2777 6.18277C6.07805 6.3794 5.80415 6.50019 5.5 6.50019C5.19585 6.50019 4.92195 6.3794 4.7223 6.18277C4.52265 5.98614 4.4 5.71638 4.4 5.41683C4.4 5.11728 4.52265 4.84752 4.7223 4.65089C4.92195 4.45426 5.19585 4.33346 5.5 4.33346C5.80415 4.33346 6.07805 4.45426 6.2777 4.65089C6.47735 4.84752 6.6 5.11728 6.6 5.41683Z" fill="#222222"/>
</svg>
