<svg width="12" height="12" viewBox="0 0 12 12" fill="none" xmlns="http://www.w3.org/2000/svg">
<path d="M12 6C12 4.34345 11.328 2.84236 10.2425 1.75745C9.15709 0.672546 7.65655 0 6 0C4.34345 0 2.84236 0.672 1.75745 1.75745C0.672546 2.84291 0 4.34345 0 6C0 7.65655 0.672 9.15764 1.75745 10.2425C2.84291 11.3275 4.34345 12 6 12C7.65655 12 9.15764 11.328 10.2425 10.2425C11.3275 9.15709 12 7.65655 12 6ZM10.9091 6C10.9091 7.356 10.3604 8.58218 9.47127 9.47127C8.58218 10.3604 7.356 10.9091 6 10.9091C4.644 10.9091 3.41782 10.3604 2.52873 9.47127C1.63964 8.58218 1.09091 7.356 1.09091 6C1.09091 4.644 1.63964 3.41782 2.52873 2.52873C3.41782 1.63964 4.644 1.09091 6 1.09091C7.356 1.09091 8.58218 1.63964 9.47127 2.52873C10.3604 3.41782 10.9091 4.644 10.9091 6ZM5.45455 2.72727V6C5.45455 6.21218 5.57564 6.39655 5.75618 6.48764L7.938 7.57855C8.20746 7.71327 8.53527 7.60418 8.67 7.33473C8.80473 7.06527 8.69564 6.73745 8.42618 6.60273L6.54545 5.66291V2.72727C6.54545 2.42618 6.30109 2.18182 6 2.18182C5.69891 2.18182 5.45455 2.42618 5.45455 2.72727Z" fill="#222222"/>
</svg>
